<svg width="37" height="37" viewBox="0 0 37 37" fill="none" xmlns="http://www.w3.org/2000/svg">
<path d="M18.5017 0.727539C13.4774 0.727539 12.8468 0.748865 10.8735 0.83604C8.90399 0.923589 7.55964 1.22627 6.38334 1.67037C5.16656 2.12907 4.13441 2.74266 3.10611 3.74124C2.07703 4.73945 1.44494 5.74139 0.970874 6.92218C0.512224 8.06443 0.200033 9.36981 0.111386 11.2809C0.0231251 13.1965 0 13.809 0 18.6863C0 23.5636 0.0223548 24.1738 0.111772 26.0894C0.202346 28.0013 0.514151 29.3063 0.97126 30.4481C1.44417 31.6293 2.07626 32.6312 3.10495 33.6294C4.13287 34.6284 5.16502 35.2435 6.38102 35.7022C7.5581 36.1463 8.90283 36.449 10.8719 36.5365C12.8453 36.6237 13.4755 36.645 18.4994 36.645C23.5242 36.645 24.1528 36.6237 26.1261 36.5365C28.0956 36.449 29.4415 36.1463 30.6186 35.7022C31.835 35.2435 32.8656 34.6284 33.8935 33.6294C34.9226 32.6312 35.5547 31.6293 36.0287 30.4485C36.4835 29.3063 36.7957 28.0009 36.8882 26.0898C36.9769 24.1742 37 23.5636 37 18.6863C37 13.809 36.9769 13.1969 36.8882 11.2813C36.7957 9.36943 36.4835 8.06443 36.0287 6.92256C35.5547 5.74139 34.9226 4.73945 33.8935 3.74124C32.8644 2.74229 31.8354 2.1287 30.6174 1.67037C29.438 1.22627 28.0929 0.923589 26.1234 0.83604C24.1501 0.748865 23.5218 0.727539 18.496 0.727539H18.5017ZM16.8421 3.96385C17.3347 3.96311 17.8843 3.96385 18.5017 3.96385C23.4413 3.96385 24.0267 3.98106 25.9774 4.06712C27.7811 4.14718 28.7601 4.43976 29.4122 4.68557C30.2756 5.01107 30.8911 5.40018 31.5382 6.02873C32.1857 6.65729 32.5865 7.25591 32.9226 8.09399C33.1759 8.72629 33.4776 9.6766 33.5597 11.4276C33.6484 13.3207 33.6677 13.8894 33.6677 18.6822C33.6677 23.4749 33.6484 24.0436 33.5597 25.9367C33.4773 27.6877 33.1759 28.638 32.9226 29.2703C32.5873 30.1084 32.1857 30.7052 31.5382 31.3333C30.8907 31.9619 30.2759 32.351 29.4122 32.6765C28.7609 32.9234 27.7811 33.2153 25.9774 33.2953C24.0271 33.3814 23.4413 33.4001 18.5017 33.4001C13.5618 33.4001 12.9763 33.3814 11.0261 33.2953C9.22235 33.2145 8.24338 32.9219 7.59086 32.6761C6.72752 32.3506 6.11084 31.9615 5.46334 31.333C4.81583 30.7044 4.41499 30.1073 4.07891 29.2688C3.82569 28.6365 3.5239 27.6862 3.44181 25.9352C3.35316 24.0421 3.33543 23.4734 3.33543 18.6777C3.33543 13.8819 3.35316 13.3162 3.44181 11.4231C3.52429 9.67211 3.82569 8.7218 4.07891 8.08875C4.41422 7.25068 4.81583 6.65205 5.46334 6.0235C6.11084 5.39494 6.72752 5.00583 7.59086 4.67958C8.24299 4.43265 9.22235 4.14082 11.0261 4.06038C12.7328 3.98555 13.3941 3.96311 16.8421 3.95936V3.96385ZM28.377 6.94575C27.1513 6.94575 26.157 7.90991 26.157 9.10005C26.157 10.2898 27.1513 11.2551 28.377 11.2551C29.6026 11.2551 30.597 10.2898 30.597 9.10005C30.597 7.91029 29.6026 6.945 28.377 6.945V6.94575ZM18.5017 9.46372C13.255 9.46372 9.00111 13.5931 9.00111 18.6863C9.00111 23.7795 13.255 27.907 18.5017 27.907C23.7485 27.907 28.0008 23.7795 28.0008 18.6863C28.0008 13.5931 23.7481 9.46372 18.5013 9.46372H18.5017ZM18.5017 12.7C21.9073 12.7 24.6685 15.38 24.6685 18.6863C24.6685 21.9922 21.9073 24.6725 18.5017 24.6725C15.0958 24.6725 12.335 21.9922 12.335 18.6863C12.335 15.38 15.0958 12.7 18.5017 12.7V12.7Z" fill="white"/>
</svg>
