<?xml version="1.0" encoding="utf-8"?>
<!-- Generator: Adobe Illustrator 26.0.1, SVG Export Plug-In . SVG Version: 6.00 Build 0)  -->
<svg version="1.1" id="Layer_2" xmlns="http://www.w3.org/2000/svg" xmlns:xlink="http://www.w3.org/1999/xlink" x="0px" y="0px"
	 viewBox="0 0 516.7 765.2" style="enable-background:new 0 0 516.7 765.2;" xml:space="preserve">
<style type="text/css">
	.st0{fill:none;stroke:#000000;stroke-width:8;stroke-linecap:round;stroke-linejoin:round;stroke-miterlimit:10;}
</style>
<path class="st0" d="M330.7,540c-115.5,19.9-172.3-21.7-90.6-46.5c2.8-0.9,5.9-1,8.8-0.5c15.6,3.2,22.3,19.1-4.8,15.2
	c-30.5-5.4-44.3-49.3-18.1-118.1c18.1-49.7,119.6-32.1,147.3,39c51.3,121.6,119.2,117.3,130,217.3c0.1,0.6,0.1,1.3,0.1,1.9
	c2,197.8-205.4,60.7-90.6,29.1c12.8-3.5,25.3,7.4,22.8,20.5c-0.8,4.3-3,7.8-7,9"/>
<path class="st0" d="M421.9,474C458.5,239.2,272,261.5,214.5,127c-21.8-51.9-92.7-76.5-92.7-76.5"/>
<path class="st0" d="M193.3,420c-25.7-32.4-26.2-58.1-26.2-58.1c0-25.1,14-25.6,10.6,10.6c1,41.8-2.9,180.6-79.8,128.4
	c-2.8-34.6,40.8-20.1,40.2-69.2c-5.2-162-93.4-176.1-56.9-271.3"/>
<path class="st0" d="M107.4,112.5c-9.5,40.7-70.3,98.8-98.8,48C35.9,112.5-2,119.8,32,79c15.8-22.1,19.7-33.8,0.8-63.7
	c1.4-15.7,37.7,16.5,36,18"/>
<path class="st0" d="M63.8,77.9c4.7-22.8,5-41.9,5.4-58.5C82,3.1,117.8,53.5,114.1,77.9"/>
</svg>
