<svg width="114" height="84" viewBox="0 0 114 84" fill="none" xmlns="http://www.w3.org/2000/svg">
<path d="M56.2924 0.374171C56.5918 0.397756 56.8912 0.429203 57.1906 0.437065C62.5408 0.610022 67.7964 1.37261 72.8708 3.1179C76.1171 4.23426 79.1586 5.74371 81.8613 7.89781C83.4057 9.1321 84.7767 10.5393 85.8325 12.2217C86.1162 12.6699 86.4471 12.8271 86.9435 12.8585C88.4722 12.9529 89.9535 13.2516 91.4191 13.7076C95.4297 14.9576 98.1954 17.5677 99.8501 21.3963C100.102 21.9702 100.347 22.552 100.575 23.1416C100.662 23.3618 100.772 23.4404 101.008 23.4168C102.561 23.2596 104.113 23.1181 105.665 22.9687C107.257 22.8193 108.848 22.6699 110.44 22.5284C111.181 22.4655 111.929 22.4262 112.678 22.3476C112.985 22.3162 113.088 22.4262 113.064 22.7092C113.056 22.8114 113.064 22.9215 113.064 23.0237C113.064 36.0034 113.064 48.9909 113.064 61.9705C113.064 62.6624 113.064 62.6859 112.363 62.6231C109.841 62.4029 107.328 62.1749 104.806 61.9391C103.38 61.8054 101.962 61.6797 100.536 61.5381C100.228 61.5067 100.165 61.6954 100.094 61.9234C99.6137 63.4407 99.0307 64.9029 98.2506 66.2945C96.4698 69.4785 93.7435 71.4753 90.3238 72.5995C88.4958 73.2049 86.589 73.4172 84.6821 73.6294C77.9925 74.3606 71.421 75.587 65.2356 78.3858C62.6196 79.5729 60.0273 80.8072 57.6634 82.4738C56.8912 83.0163 56.0481 83.3858 55.1105 83.5352C54.8189 83.5352 54.5353 83.5352 54.2437 83.5352C52.9751 83.315 51.9272 82.6704 50.9265 81.9078C50.8004 81.8135 50.6664 81.727 50.5325 81.6484C48.4759 80.5792 46.443 79.4392 44.3392 78.4722C38.1302 75.6106 31.5036 74.3763 24.7587 73.6373C22.9307 73.4407 21.1105 73.2363 19.3455 72.686C16.5877 71.8291 14.2002 70.3983 12.388 68.1105C11.0169 66.3809 10.1265 64.3998 9.45679 62.3165C9.32284 61.8919 9.11009 61.7897 8.71612 61.8526C8.00697 61.9627 7.28994 62.0806 6.5729 62.1514C4.58728 62.3479 2.60953 62.5209 0.623901 62.7017C0.623901 49.2346 0.623901 35.7597 0.623901 22.2926C3.25565 22.5677 5.88739 22.8508 8.51913 23.1338C8.7634 23.1574 8.87371 23.0473 8.96039 22.8429C9.20465 22.2533 9.46467 21.6636 9.72469 21.074C11.4188 17.2768 14.2712 14.8082 18.2582 13.6211C19.7631 13.173 21.2996 12.9214 22.8598 12.8035C23.1277 12.7799 23.2695 12.6541 23.4192 12.4497C24.152 11.4906 24.8375 10.4922 25.6649 9.61952C28.139 7.0173 31.1726 5.24056 34.4662 3.88835C40.1001 1.57701 46.0097 0.657192 52.0532 0.421341C52.392 0.405618 52.7309 0.374171 53.0697 0.350586C54.1413 0.374171 55.2129 0.374171 56.2924 0.374171ZM110.156 42.5207C110.156 37.0568 110.156 31.593 110.156 26.1291C110.156 25.6181 110.125 25.5788 109.621 25.6259C108.691 25.7045 107.769 25.791 106.839 25.8775C104.294 26.1055 101.749 26.3256 99.204 26.5772C98.8258 26.6165 98.6918 26.4907 98.5579 26.1527C97.9433 24.6118 97.3681 23.0473 96.6432 21.5536C95.6346 19.4781 93.9799 18.0158 91.8524 17.096C89.7486 16.184 87.5266 15.8381 85.2573 15.8067C84.753 15.7988 84.4457 15.6652 84.2094 15.1935C83.4687 13.7312 82.4759 12.4497 81.2861 11.3176C79.1035 9.2343 76.5269 7.7563 73.7454 6.63208C68.4583 4.4937 62.9111 3.66822 57.2537 3.47168C55.1971 3.40092 53.1327 3.41665 51.0762 3.54243C48.8305 3.68394 46.577 3.91193 44.355 4.25785C40.3049 4.88678 36.3967 6.04245 32.7643 8.00001C29.5495 9.73745 26.8468 12.0173 25.1369 15.3192C24.94 15.6966 24.6957 15.7988 24.3017 15.7988C22.5604 15.8067 20.8505 16.0268 19.1722 16.5064C16.2016 17.3712 13.9087 19.0771 12.5692 21.9152C11.9625 23.2045 11.4582 24.541 10.9381 25.8696C10.7963 26.2234 10.6308 26.3571 10.2526 26.3099C8.25911 26.0819 6.2656 25.8696 4.2721 25.6417C3.53931 25.563 3.52355 25.563 3.52355 26.3099C3.52355 37.104 3.52355 47.906 3.52355 58.7001C3.52355 58.8023 3.53143 58.9123 3.52355 59.0145C3.49203 59.329 3.64962 59.4391 3.94904 59.4076C4.62667 59.3369 5.30431 59.2818 5.98194 59.2111C7.62087 59.046 9.26768 58.8809 10.9066 58.6922C11.2612 58.6529 11.3715 58.7944 11.4739 59.1089C11.9703 60.5869 12.4274 62.0806 13.0183 63.5193C13.6802 65.1545 14.6809 66.5775 16.0755 67.6938C18.1242 69.3291 20.5117 70.0681 23.0646 70.414C26.1061 70.8307 29.1555 71.1923 32.1812 71.6876C37.3423 72.5288 42.2748 74.1169 46.9788 76.3967C49.2009 77.4738 51.4071 78.5744 53.4085 80.0288C54.2674 80.6499 55.1262 80.6421 55.993 80.0288C56.5445 79.6358 57.1118 79.2427 57.6949 78.8968C65.275 74.3684 73.5405 71.8999 82.2789 70.8857C84.0912 70.6734 85.9034 70.4926 87.7 70.1624C92.0573 69.3763 95.1461 66.9863 96.7062 62.7882C97.2026 61.4674 97.5966 60.1073 98.0221 58.7551C98.1088 58.4878 98.2269 58.362 98.5185 58.3935C98.9361 58.4406 99.3537 58.4406 99.7713 58.4799C103.01 58.7787 106.248 59.0853 109.479 59.3919C110.125 59.4548 110.149 59.4391 110.149 58.7944C110.156 53.3698 110.156 47.9453 110.156 42.5207Z" fill="white"/>
<path d="M51.7695 56.2003C53.6606 56.2003 55.5438 56.1924 57.4349 56.2003C59.8775 56.216 62.3123 56.2317 64.7549 56.2789C67.4182 56.3339 70.0735 56.4125 72.7368 56.5147C75.3922 56.6169 78.0554 56.7349 80.7108 56.9078C84.1936 57.1279 87.6684 57.4031 91.1433 57.6625C93.0028 57.804 94.8545 57.9849 96.7062 58.15C96.9426 58.1735 97.1317 58.205 97.045 58.5273C96.5013 60.5242 95.9103 62.5053 94.9097 64.3371C93.4835 66.9471 91.2299 68.4644 88.4091 69.1405C86.912 69.5022 85.3676 69.6909 83.8311 69.856C75.4789 70.76 67.4182 72.6547 59.9563 76.6563C58.3725 77.5053 56.7572 78.2994 55.3468 79.4314C54.9055 79.7852 54.4722 79.7145 54.0546 79.3921C52.4629 78.1736 50.6664 77.3009 48.9014 76.3811C45.7969 74.7695 42.5663 73.4723 39.2096 72.4582C35.3644 71.3025 31.4247 70.6185 27.4613 70.0918C25.6648 69.856 23.8683 69.6751 22.0796 69.3843C19.7316 68.999 17.6277 68.0635 15.9573 66.3261C14.7754 65.1075 14.0505 63.6059 13.4753 62.0336C13.1128 61.0509 12.837 60.0368 12.514 59.0383C12.4194 58.7396 12.4824 58.6138 12.8134 58.5823C14.5075 58.4173 16.2016 58.2286 17.8956 58.0635C19.8655 57.8748 21.8354 57.7018 23.8131 57.5368C25.3024 57.411 26.7916 57.3009 28.2808 57.1987C30.7549 57.0336 33.2291 56.8842 35.7033 56.7427C37.1058 56.6641 38.5084 56.6091 39.9109 56.5619C42.7318 56.4676 45.5447 56.3811 48.3656 56.3182C49.5081 56.2867 50.6427 56.3103 51.7853 56.3103C51.7695 56.2867 51.7695 56.2396 51.7695 56.2003ZM60.2321 64.1956C60.3187 63.9361 60.3581 63.7317 60.0666 63.6217C59.8539 63.543 59.8617 63.4094 59.9563 63.2207C60.0981 62.9377 60.1927 62.639 60.3109 62.3481C59.4914 61.9943 59.7751 62.8669 59.389 63.0242C59.2393 62.8119 59.1053 62.5839 58.9398 62.3874C58.7507 62.1673 58.7586 62.01 58.9792 61.7978C59.1999 61.5855 59.389 61.3182 59.5229 61.043C59.6726 60.7522 59.6569 60.4298 59.4047 60.1704C59.1211 59.8795 58.4592 59.8088 58.081 60.021C57.7185 60.2333 57.5609 60.6971 57.7106 61.1531C57.75 61.2789 57.7894 61.4125 57.8682 61.5069C58.144 61.8528 58.1283 62.1594 57.7816 62.4424C57.7658 62.4581 57.75 62.4817 57.7343 62.5053C57.4191 62.9613 57.3876 63.5195 57.6555 63.8654C57.9391 64.227 58.538 64.3685 59.0186 64.1012C59.3732 63.9047 59.6411 63.8418 59.9484 64.1405C59.9957 64.1798 60.1296 64.172 60.2321 64.1956ZM42.7396 62.7726C42.716 62.3324 42.7002 61.8135 42.6608 61.2868C42.6136 60.6814 42.3141 60.3512 41.7074 60.2805C41.3844 60.2412 41.0534 60.2726 40.7304 60.2805C40.2418 60.2962 40.234 60.3119 40.2576 60.8072C40.3049 61.8135 40.36 62.8198 40.3916 63.8261C40.4152 64.5336 40.4073 64.5336 41.1007 64.5179C42.4087 64.5022 42.7475 64.1563 42.7396 62.7726ZM75.794 64.5493C75.9043 64.5729 75.9595 64.5886 76.0068 64.5965C76.3614 64.6044 76.7159 64.6201 77.0705 64.6122C77.7245 64.6044 78.0948 64.3214 78.1736 63.6767C78.2603 62.9534 78.3076 62.2223 78.3076 61.4912C78.3076 60.8544 78.0082 60.5556 77.3699 60.4298C77.2045 60.3984 77.0311 60.3748 76.8656 60.3748C76.0304 60.3434 76.0304 60.3434 75.9753 61.161C75.9674 61.2396 75.9516 61.3182 75.9516 61.3968C75.8886 62.4346 75.8413 63.4723 75.794 64.5493ZM38.8472 64.5336C38.6423 63.9754 38.4532 63.4251 38.2405 62.8748C38.1538 62.6468 38.1538 62.4974 38.3665 62.3009C38.7369 61.9629 38.7053 61.499 38.5635 61.0588C38.4296 60.65 38.1144 60.4613 37.6968 60.4377C37.3422 60.422 36.9876 60.4456 36.633 60.4377C36.373 60.4298 36.2863 60.5556 36.3021 60.7993C36.3415 61.4676 36.373 62.128 36.4045 62.7962C36.4282 63.3072 36.4518 63.8103 36.4754 64.3214C36.4833 64.5258 36.5464 64.6751 36.7985 64.6751C37.0585 64.6751 37.09 64.51 37.09 64.3056C37.0743 63.8968 37.0507 63.4959 37.0585 63.0871C37.0664 62.9377 37.1294 62.7097 37.2319 62.6547C37.484 62.5368 37.6337 62.7176 37.7125 62.9613C37.8544 63.3858 38.0277 63.7946 38.1538 64.2192C38.2562 64.5965 38.4611 64.683 38.8472 64.5336ZM72.3428 61.672C72.4059 61.6641 72.4689 61.6563 72.5319 61.6484C72.595 61.7899 72.6659 61.9235 72.721 62.0651C73.0283 62.7883 73.3199 63.5195 73.6351 64.2349C73.6823 64.3449 73.832 64.4 73.9345 64.4864C73.9975 64.3842 74.1157 64.2899 74.1236 64.1798C74.1709 62.9613 74.2103 61.7506 74.2339 60.532C74.2339 60.4298 74.0606 60.3276 73.966 60.2254C73.903 60.3355 73.7926 60.4377 73.7848 60.5478C73.7454 61.216 73.7217 61.8764 73.6981 62.5446C73.6902 62.6625 73.6745 62.7883 73.6666 62.9063C73.5169 62.7805 73.446 62.6468 73.3908 62.5132C73.0993 61.8371 72.8156 61.1688 72.5319 60.4927C72.4374 60.2569 72.3034 60.1154 72.0198 60.2018C72.004 60.2647 71.9883 60.3198 71.9804 60.3827C71.9252 61.5855 71.8779 62.7883 71.8307 63.9833C71.8228 64.172 71.7676 64.4 72.0828 64.4157C72.3901 64.4236 72.3586 64.1956 72.3586 64.0069C72.3428 63.2364 72.3428 62.4503 72.3428 61.672ZM34.6632 60.6185C34.1195 60.5713 34.0722 60.6028 34.0958 61.0273C34.1274 61.7585 34.1904 62.4896 34.2219 63.2207C34.2377 63.5037 34.2298 63.7946 34.1746 64.0776C34.1195 64.3685 33.8752 64.5022 33.5916 64.51C33.3 64.5179 33.0794 64.3764 33.0085 64.0776C32.9533 63.8418 32.9218 63.5902 32.906 63.3465C32.8509 62.5761 32.8036 61.8056 32.7642 61.0352C32.7563 60.8308 32.7169 60.6735 32.449 60.6893C32.1969 60.705 32.1969 60.8701 32.2048 61.0509C32.2442 61.8056 32.2836 62.5682 32.3308 63.3229C32.3466 63.6059 32.3702 63.9047 32.449 64.172C32.6224 64.7773 33.0558 64.9975 33.8122 64.9188C34.411 64.8481 34.7814 64.5179 34.7814 63.9283C34.7735 62.8198 34.7104 61.727 34.6632 60.6185ZM67.8358 61.9314C67.82 61.9314 67.7964 61.9314 67.7806 61.9314C67.7806 62.3638 67.7727 62.7962 67.7806 63.2286C67.8042 63.9833 68.1825 64.3449 68.9468 64.3607C69.7426 64.3764 70.1602 64.0462 70.2075 63.2836C70.2626 62.3559 70.2705 61.4283 70.302 60.5006C70.3099 60.3119 70.302 60.1232 70.0263 60.1232C69.7584 60.1232 69.7505 60.304 69.7426 60.5006C69.719 61.3339 69.6953 62.1751 69.6638 63.0085C69.6323 63.661 69.388 63.9754 68.9625 63.9597C68.5449 63.944 68.3322 63.6217 68.3401 62.9927C68.3558 62.1437 68.3873 61.2946 68.411 60.4456C68.4188 60.2569 68.4346 60.0682 68.1509 60.0603C67.883 60.0525 67.8436 60.2254 67.8436 60.4141C67.8279 60.9173 67.8358 61.4204 67.8358 61.9314ZM79.4422 64.6751C79.7968 64.8402 80.0174 64.8245 80.0884 64.4314C80.112 64.2742 80.1593 64.1248 80.2144 63.9833C80.2538 63.8968 80.3169 63.7868 80.4035 63.7632C80.8842 63.5824 81.286 63.8497 81.357 64.3607C81.3648 64.4236 81.3806 64.4864 81.3885 64.5572C81.4673 64.9424 81.5382 64.9817 81.9873 64.8324C81.7588 63.5037 81.5303 62.1673 81.286 60.8308C81.2703 60.7443 81.0812 60.6264 80.9709 60.6264C80.8448 60.6264 80.6478 60.7286 80.6163 60.8229C80.2065 62.0808 79.8362 63.3622 79.4422 64.6751ZM27.9499 65.1783C27.9499 65.1232 27.9656 65.0839 27.9577 65.0525C27.5716 63.8025 27.1934 62.5525 26.7916 61.3103C26.7601 61.2003 26.5315 61.0824 26.4134 61.0981C26.2952 61.1059 26.1218 61.2632 26.0903 61.389C25.9879 61.8449 25.9248 62.3166 25.8539 62.7805C25.72 63.6295 25.586 64.4786 25.4521 65.3198C25.9327 65.4377 25.9957 65.3984 26.0509 64.966C26.1376 64.282 26.1691 64.282 26.7049 64.2113C27.1855 64.1484 27.2486 64.455 27.3116 64.7852C27.3747 65.1154 27.5086 65.3434 27.9499 65.1783ZM44.0949 64.172C44.1422 64.2191 44.2052 64.3449 44.284 64.3528C44.3943 64.3607 44.5519 64.3135 44.6149 64.2349C44.6937 64.1248 44.7095 63.9676 44.7174 63.8261C44.741 63.4015 44.9301 63.2443 45.3635 63.26C45.7181 63.2679 45.8993 63.3701 45.9308 63.7317C45.9466 63.8732 45.9545 64.0383 46.0411 64.1405C46.1199 64.2427 46.2775 64.2742 46.4036 64.3449C46.4509 64.2349 46.5691 64.1091 46.5454 64.0147C46.2381 62.8119 45.9229 61.6091 45.5762 60.4141C45.5447 60.2883 45.3399 60.1704 45.1902 60.139C44.9616 60.0839 44.8829 60.2569 44.8435 60.4613C44.7489 60.9487 44.6465 61.4361 44.5519 61.9235C44.4101 62.6468 44.2525 63.378 44.0949 64.172ZM52.5811 59.8952C52.0611 59.8952 51.6592 60.1232 51.5174 60.4927C51.344 60.9487 51.4859 61.4597 51.8956 61.7978C52.1714 62.0257 52.4629 62.2223 52.7229 62.4581C52.9042 62.6232 53.0854 62.8119 53.1799 63.032C53.2981 63.3072 53.2824 63.6138 52.9514 63.771C52.6599 63.9125 52.3211 63.7868 52.1477 63.4802C52.1005 63.4015 52.1005 63.2915 52.0453 63.2286C51.9586 63.1342 51.8326 63.0085 51.7301 63.0085C51.5174 63.0085 51.4543 63.1736 51.5174 63.378C51.6356 63.771 51.8483 64.1012 52.2817 64.1877C52.7466 64.282 53.2351 64.3056 53.5503 63.889C53.7079 63.6846 53.7867 63.3622 53.7788 63.1028C53.763 62.6075 53.4006 62.2852 53.0381 61.9943C52.7544 61.7663 52.4472 61.5541 52.1871 61.3025C51.9744 61.0981 51.8562 60.7836 52.0768 60.5713C52.2265 60.422 52.5496 60.3669 52.7702 60.3984C52.912 60.422 53.0066 60.6971 53.1484 60.8386C53.2272 60.9173 53.3848 61.0273 53.4557 60.9959C53.5424 60.9644 53.6448 60.7915 53.6291 60.6893C53.566 60.194 53.1484 59.8952 52.5811 59.8952ZM65.1725 59.9581C64.6131 59.9581 64.2506 60.139 64.1088 60.532C63.9354 61.0116 64.0536 61.4361 64.4397 61.7742C64.7313 62.0336 65.0543 62.2695 65.3222 62.5525C65.5034 62.7412 65.6689 62.9927 65.7319 63.2364C65.8265 63.6374 65.5901 63.8497 65.1725 63.8339C64.747 63.8182 64.6525 63.5116 64.5421 63.1893C64.5106 63.1028 64.3294 62.977 64.2979 63.0006C64.1876 63.0635 64.03 63.1971 64.03 63.2993C64.03 63.8103 64.5106 64.2349 65.0858 64.2742C65.7319 64.3213 66.1968 64.0226 66.2993 63.4723C66.4096 62.8984 66.1102 62.4896 65.7162 62.1358C65.3931 61.8449 65.0464 61.5855 64.747 61.2789C64.5264 61.0509 64.4791 60.7443 64.7234 60.5006C64.9361 60.2805 65.2355 60.2647 65.4798 60.4534C65.6059 60.5478 65.6453 60.7443 65.7477 60.8701C65.8186 60.9566 65.9447 61.0037 66.0392 61.0666C66.1023 60.9566 66.2362 60.8308 66.2205 60.7286C66.1496 60.2254 65.7713 59.966 65.1725 59.9581ZM22.3003 64.4157C21.8117 64.4629 21.7645 64.5415 21.9299 64.9346C22.119 65.3827 22.4579 65.6028 22.9385 65.6185C23.3955 65.6342 23.8131 65.5242 24.0416 65.0918C24.2701 64.6515 24.1756 64.227 23.8762 63.8497C23.758 63.7003 23.6004 63.5666 23.4428 63.4487C23.1355 63.2207 22.8203 63.0163 22.5051 62.7962C22.2609 62.6232 22.0954 62.3638 22.2215 62.0965C22.3003 61.9236 22.5524 61.7663 22.7494 61.727C23.0409 61.6641 23.2379 61.8685 23.3246 62.1437C23.3876 62.3402 23.4822 62.4267 23.6949 62.3402C23.9471 62.238 23.8446 62.0729 23.7895 61.9157C23.624 61.4833 23.3482 61.3103 22.8361 61.3103C22.2609 61.3025 21.859 61.5226 21.7014 61.9157C21.5517 62.3088 21.6542 62.8198 21.993 63.1028C22.3003 63.3622 22.6627 63.5666 22.9779 63.8103C23.167 63.9597 23.364 64.1327 23.4901 64.3371C23.6871 64.6515 23.6004 64.9817 23.3325 65.1232C23.0409 65.2883 22.6627 65.1783 22.4894 64.8717C22.4263 64.7223 22.3712 64.5651 22.3003 64.4157ZM87.4241 64.0776C86.9829 64.0619 86.8962 64.1091 86.9435 64.3921C87.0065 64.8402 87.2272 65.1861 87.6842 65.3198C88.1569 65.4613 88.6218 65.4613 89 65.0761C89.2758 64.793 89.3467 64.2585 89.1025 63.8654C88.8976 63.5352 88.6139 63.26 88.346 62.9691C88.1648 62.7647 87.9127 62.6075 87.7866 62.3795C87.6842 62.1987 87.6605 61.9157 87.7393 61.7349C87.7945 61.6012 88.0939 61.4676 88.2515 61.499C88.4406 61.5383 88.6139 61.7427 88.7637 61.9C88.8425 61.9864 88.8425 62.1358 88.8819 62.2459C89.3467 62.2302 89.394 62.1594 89.2758 61.7585C89.1498 61.3261 88.8346 61.1217 88.4091 61.0824C87.9521 61.043 87.4951 61.0509 87.2429 61.5226C87.0223 61.9393 87.0459 62.3717 87.3454 62.7412C87.566 63.0085 87.8654 63.2207 88.1018 63.4802C88.2988 63.7003 88.5115 63.9283 88.6376 64.1956C88.7873 64.5179 88.6376 64.8481 88.3618 64.9503C88.0624 65.0603 87.7157 64.911 87.5896 64.5886C87.5029 64.4314 87.4714 64.2663 87.4241 64.0776ZM83.3426 60.8151C83.3662 60.933 83.382 61.043 83.4135 61.1531C83.705 62.3481 84.296 63.488 84.036 64.7852C84.0202 64.8559 84.1936 65.0289 84.3039 65.0525C84.5403 65.1075 84.6348 64.9346 84.6191 64.7223C84.5403 63.8339 84.9027 63.0635 85.2652 62.293C85.47 61.8607 85.6513 61.4204 85.8404 60.9723C85.47 60.8386 85.273 60.9173 85.1549 61.2474C85.0367 61.5934 84.8791 61.9235 84.7294 62.2616C84.6506 62.4424 84.5639 62.6154 84.4221 62.8984C84.233 62.2223 84.0675 61.672 83.9335 61.1138C83.8626 60.7836 83.6893 60.6971 83.3426 60.8151ZM47.5934 60.1075C47.6958 60.3748 47.7904 60.6107 47.8771 60.8544C48.2159 61.8292 48.799 62.749 48.6571 63.8575C48.6335 64.0383 48.6098 64.2742 48.925 64.2663C49.2166 64.2585 49.2323 64.0541 49.2087 63.8575C49.0984 62.9691 49.382 62.1515 49.6893 61.3418C49.8154 60.9959 49.9336 60.65 50.0439 60.304C50.0754 60.2097 50.0754 60.1154 50.0912 60.021C49.7445 59.911 49.5711 60.021 49.4845 60.3355C49.3269 60.8779 49.1378 61.4125 48.9644 61.955C48.925 61.955 48.8856 61.955 48.8462 61.955C48.6492 61.4361 48.4365 60.9173 48.2553 60.3984C48.1371 60.0918 47.9716 59.966 47.5934 60.1075ZM30.7234 60.7757C30.03 60.8308 29.4154 60.8701 28.8087 60.9251C28.7378 60.933 28.6669 61.043 28.6039 61.1059C28.6748 61.1688 28.7299 61.2553 28.8166 61.2868C28.8954 61.3182 28.9978 61.3025 29.0924 61.2946C29.3997 61.2553 29.51 61.3968 29.5258 61.6956C29.573 62.6625 29.6361 63.6295 29.6912 64.5965C29.707 64.8166 29.6361 65.0997 30.0222 65.0839C30.4161 65.0682 30.3058 64.7695 30.2979 64.5651C30.2585 63.6924 30.1876 62.8119 30.1403 61.9393C30.1088 61.3418 30.1167 61.3418 30.6762 61.1688C30.7628 61.1452 30.8259 61.0273 30.8968 60.9566C30.8337 60.878 30.7549 60.8072 30.7234 60.7757ZM56.5839 70.2176C56.5918 70.5163 56.7336 70.6893 57.0094 70.7522C57.3088 70.8229 57.6082 70.7207 57.6397 70.4377C57.7028 69.8245 57.6949 69.2034 57.6476 68.5824C57.6397 68.4566 57.3167 68.26 57.1433 68.26C56.97 68.26 56.7257 68.4409 56.6469 68.5981C56.316 69.2978 56.6627 69.7538 57.5294 69.6673C57.4585 69.9503 57.4664 70.2648 57.3088 70.4377C57.0015 70.7915 56.8991 70.1704 56.5839 70.2176ZM60.5 69.9582C60.4291 69.7302 60.3345 69.5415 60.3187 69.3528C60.2872 69.0698 60.3187 68.7789 60.303 68.488C60.2951 68.4094 60.2084 68.2836 60.1454 68.2679C60.0666 68.2522 59.9327 68.3229 59.8933 68.3937C59.6884 68.8339 59.4914 69.2742 59.3181 69.7223C59.255 69.8953 59.2865 70.0918 59.5308 70.0761C59.8696 70.0604 60.0508 70.1704 60.0272 70.5399C60.0272 70.5871 60.1139 70.6421 60.1612 70.6971C60.2084 70.6421 60.2715 70.5949 60.2951 70.5321C60.3739 70.3355 60.4369 70.1311 60.5 69.9582ZM51.1392 69.966C50.9658 70.3591 51.1155 70.5556 51.344 70.6893C51.5962 70.8308 51.8641 70.8151 52.0611 70.5871C52.2896 70.3277 52.258 70.0132 52.0768 69.7537C51.9035 69.51 51.6513 69.3292 51.4465 69.1091C51.2889 68.9361 51.1628 68.716 51.3992 68.5352C51.6119 68.3701 51.7853 68.488 51.8956 68.716C51.9271 68.771 52.0217 68.7946 52.0926 68.8339C52.1005 68.7553 52.1398 68.661 52.1162 68.5902C52.0217 68.3151 51.801 68.2207 51.5331 68.2365C51.2495 68.26 51.0761 68.4015 51.0288 68.6924C50.9737 69.0541 51.1786 69.2742 51.4149 69.4943C51.6119 69.6751 51.7932 69.8874 51.9271 70.1154C51.9665 70.194 51.8641 70.4456 51.7695 70.4849C51.675 70.5242 51.4859 70.4377 51.3755 70.3512C51.2731 70.2883 51.2416 70.1547 51.1392 69.966ZM50.627 70.7286C50.6743 70.6578 50.7215 70.5871 50.7609 70.5242C50.2094 70.6107 50.0518 70.4141 50.0518 69.9582C50.0518 69.5572 50.3355 69.5729 50.6506 69.4471C50.3039 69.3292 50.0518 69.2821 50.0439 68.8654C50.0282 68.3622 50.4536 68.5195 50.7531 68.2679C50.4458 68.2522 50.2488 68.1971 50.0754 68.2443C49.9572 68.2758 49.7839 68.4409 49.7839 68.5431C49.7524 69.172 49.7602 69.8009 49.7839 70.422C49.7918 70.5242 49.9415 70.6736 50.0518 70.6971C50.2409 70.7679 50.4379 70.7286 50.627 70.7286ZM52.4156 68.2915C52.392 68.3229 52.3684 68.3544 52.3447 68.3858C52.9514 68.4094 52.8254 68.8182 52.8332 69.1484C52.8411 69.5651 52.8254 69.9817 52.8411 70.3984C52.849 70.5006 52.9436 70.5949 52.9987 70.6971C53.046 70.6028 53.1248 70.5085 53.1248 70.4141C53.1405 69.9739 53.1405 69.5258 53.1327 69.0855C53.1248 68.7553 53.1011 68.433 53.5345 68.2993C53.1563 68.2915 52.786 68.2915 52.4156 68.2915ZM58.7113 68.4959C58.5695 69.2506 58.4277 69.966 58.278 70.7758C58.601 70.5556 58.9871 68.9204 58.9556 68.2993C58.6641 68.2993 58.3804 68.2993 58.0967 68.2993C58.0967 68.3387 58.0967 68.3701 58.0889 68.4094C58.2622 68.433 58.4513 68.4566 58.7113 68.4959ZM55.2286 68.5509C55.2286 68.5902 55.2286 68.6217 55.2207 68.661C55.6305 68.6374 55.662 68.8811 55.6541 69.1641C55.6383 69.5572 55.6462 69.9503 55.6541 70.3434C55.6541 70.4613 55.6935 70.5792 55.7171 70.6893C55.7723 70.6893 55.8353 70.6814 55.8905 70.6814C55.9062 69.8874 55.922 69.0934 55.8747 68.2129C55.6068 68.3544 55.4177 68.4487 55.2286 68.5509ZM48.3025 69.8402C48.3025 69.8166 48.3025 69.7931 48.3025 69.7695C47.3806 69.7695 46.4587 69.7695 45.5368 69.7695C45.5368 69.7931 45.5368 69.8166 45.5368 69.8402C46.4587 69.8402 47.3806 69.8402 48.3025 69.8402ZM62.3044 69.7459C62.3044 69.7695 62.3044 69.8009 62.3044 69.8245C63.2026 69.8245 64.1088 69.8245 65.007 69.8245C65.007 69.8009 65.007 69.7695 65.007 69.7459C64.1009 69.7459 63.2026 69.7459 62.3044 69.7459Z" fill="white"/>
<path d="M71.8543 8.27522C71.87 8.5661 71.8779 8.85698 71.8937 9.14787C71.9173 9.43089 71.9094 9.72177 72.2246 9.89473C72.3113 9.9419 72.3507 10.1384 72.3507 10.2721C72.3665 10.7438 72.3586 11.2155 72.3665 11.6872C72.3743 11.9781 72.3113 12.2847 72.6107 12.5127C72.6974 12.5834 72.6974 12.8114 72.6738 12.9608C72.5477 13.8099 72.8313 14.4781 73.4538 15.0599C73.7926 15.3744 74.0605 15.7596 74.3678 16.1134C74.3994 16.1055 74.4309 16.0898 74.4624 16.0819C74.4624 15.8382 74.4624 15.5945 74.4624 15.3508C74.4624 14.6589 74.4466 13.9592 74.4703 13.2674C74.4782 13.0237 74.6042 12.7878 74.6751 12.5441C74.7067 12.4183 74.7539 12.2926 74.7618 12.1668C74.7776 11.8759 74.7382 11.585 74.7776 11.302C74.8091 11.0425 74.9115 10.791 74.9746 10.5315C75.0218 10.3193 75.0691 10.0991 75.0849 9.87901C75.1006 9.56454 75.0928 9.25793 75.0928 8.94346C75.1243 8.94346 75.1558 8.94346 75.1873 8.94346C75.2188 9.33655 75.2346 9.7375 75.2819 10.1306C75.2976 10.2721 75.337 10.4844 75.4316 10.5394C75.7152 10.6966 75.7389 10.9325 75.7389 11.2076C75.7389 11.4828 75.7152 11.758 75.7546 12.0331C75.7861 12.2454 75.9043 12.4498 75.9674 12.6621C76.0146 12.8036 76.0777 12.9687 76.0619 13.1023C75.9359 13.9828 76.1959 14.6747 76.9208 15.2171C77.2517 15.4608 77.5117 15.8146 77.819 16.0976C77.9057 16.1763 78.0476 16.1841 78.1579 16.2313C78.1973 16.1291 78.2603 16.019 78.2603 15.9168C78.2761 15.4687 78.2603 15.0284 78.2682 14.5803C78.2682 14.1008 78.2997 14.0772 78.7882 14.0772C78.9458 14.0772 79.1034 14.0929 79.261 14.0772C79.655 14.0379 79.8992 14.1322 79.852 14.596C79.8441 14.6747 79.9623 14.824 80.0332 14.8398C80.309 14.8791 80.3247 15.052 80.3247 15.2643C80.3168 15.5788 80.3247 15.8932 80.3247 16.2077C80.3326 16.7266 80.5769 16.9624 81.0969 16.8838C82.728 16.6322 84.3669 16.6008 86.0058 16.6715C87.9757 16.7502 89.8904 17.1197 91.6869 17.9609C93.5937 18.8571 94.9963 20.2801 95.8788 22.1669C96.5013 23.5034 97.0056 24.9028 97.5335 26.2786C97.7147 26.7581 97.6753 26.7817 97.1789 26.8289C94.3581 27.0805 91.5372 27.3556 88.7164 27.5836C86.6913 27.7487 84.6663 27.8745 82.6334 28.0003C79.9386 28.1654 77.2438 28.3069 74.5491 28.4484C73.8557 28.4877 73.1623 28.5192 72.4689 28.5349C70.0341 28.5978 67.5915 28.6921 65.1567 28.7157C59.8854 28.755 54.6061 28.7865 49.3348 28.7629C46.5927 28.7471 43.8585 28.6292 41.1165 28.5349C38.926 28.4563 36.7434 28.3541 34.5529 28.2283C31.9211 28.071 29.2973 27.8981 26.6655 27.7015C24.2702 27.5286 21.8827 27.3399 19.4952 27.1276C17.1156 26.9154 14.7439 26.6559 12.3722 26.4201C12.2225 26.4044 12.0727 26.3572 11.8442 26.31C12.1279 25.5317 12.3722 24.7927 12.6637 24.0616C13.168 22.7958 13.7511 21.5615 14.5863 20.4688C15.91 18.7549 17.7066 17.7879 19.7552 17.2297C22.0403 16.6086 24.3647 16.5693 26.7049 16.7344C27.6583 16.8052 28.6118 16.8917 29.5652 16.9781C29.8882 17.0096 30.0064 16.8838 29.9907 16.5536C29.967 16.0426 29.9907 16.0347 30.5107 16.0347C30.8022 16.0347 31.1095 16.0898 31.1095 15.6338C31.1095 15.5866 31.2908 15.5001 31.3932 15.5001C31.7478 15.4844 32.1024 15.4844 32.4569 15.4923C32.7248 15.5001 32.8588 15.3979 32.8273 15.1306C32.78 14.7533 32.9455 14.4938 33.237 14.258C33.3867 14.1401 33.5049 13.8963 33.5128 13.7077C33.5443 12.9215 33.5285 12.1353 33.5207 11.3492C33.5207 11.1054 33.5995 10.9561 33.8043 10.7988C34.3795 10.3664 34.7971 9.81611 34.9547 9.08497C34.9862 8.94346 35.1123 8.81768 35.1911 8.69189C35.2778 8.80981 35.396 8.91202 35.4354 9.04567C35.6718 9.72177 36.0185 10.3035 36.57 10.791C36.7749 10.9718 36.8852 11.3334 36.9088 11.6243C36.9561 12.3555 36.9167 13.0945 36.9325 13.8256C36.9325 13.9671 36.9955 14.1715 37.0901 14.2265C37.4446 14.4074 37.4998 14.6825 37.484 15.0442C37.4683 15.5395 37.3737 15.7045 38.0592 15.681C38.2168 15.6731 38.3823 15.7674 38.6266 15.8382C38.6581 15.6495 38.7211 15.453 38.7211 15.2486C38.729 12.7721 38.7211 10.2957 38.729 7.81924C38.729 7.65414 38.729 7.46546 38.792 7.32395C38.9417 7.01734 39.1624 6.81294 39.5642 6.85224C40.3206 6.923 41.0771 6.97017 41.8414 6.99376C42.196 7.00162 42.2826 7.14313 42.2748 7.47332C42.2669 9.51737 42.2669 11.5614 42.2669 13.6055C42.2669 13.8728 42.2038 14.1715 42.5663 14.2894C42.6214 14.3052 42.6293 14.4467 42.6766 14.5253C42.7318 14.6118 42.7948 14.6982 42.8578 14.7847C42.913 14.6825 43.0233 14.5882 43.0233 14.486C43.0391 14.0143 43.0312 13.5426 43.0312 13.0709C43.0312 12.5913 43.3227 12.2297 43.8034 12.2218C44.9065 12.1982 46.0096 12.2061 47.1127 12.2218C47.1994 12.2218 47.357 12.3161 47.3728 12.3869C47.4516 12.7407 47.5304 13.0945 47.5461 13.4482C47.5776 13.9828 47.5619 14.5253 47.554 15.0599C47.5461 15.3193 47.6249 15.4451 47.9086 15.4451C49.1929 15.4372 50.4773 15.4372 51.7695 15.4451C52.0532 15.4451 52.1083 15.3115 52.132 15.0599C52.1556 14.8398 52.2186 14.596 52.3526 14.4231C52.5102 14.2265 52.6993 13.9199 53.0302 14.0929C53.3612 14.2737 53.7788 14.4231 53.6921 14.9498C53.637 15.3193 53.7867 15.453 54.1728 15.453C56.5366 15.4372 58.9004 15.4372 61.2564 15.453C61.611 15.453 61.7764 15.3508 61.7292 14.9813C61.6661 14.5174 62.0128 14.2973 62.3201 14.085C62.5644 13.9121 63.2105 14.3759 63.242 14.7218C63.3208 15.4451 63.3208 15.4451 64.0457 15.4451C66.2205 15.4451 68.4031 15.4451 70.5778 15.4451C71.09 15.4451 71.0979 15.4451 71.0979 14.9184C71.0979 14.4467 71.0979 13.975 71.0979 13.5033C71.0979 13.1102 71.0585 12.725 71.3421 12.379C71.4209 12.2847 71.4052 12.1039 71.4052 11.9624C71.413 11.53 71.3815 11.0976 71.4209 10.6652C71.4446 10.39 71.5706 10.1306 71.6179 9.85542C71.6731 9.54882 71.7046 9.24221 71.7282 8.92774C71.744 8.7312 71.7282 8.52679 71.7282 8.33025C71.7676 8.27522 71.8149 8.27522 71.8543 8.27522ZM82.6728 26.1449C83.5632 26.0663 84.3905 26.0506 85.2021 25.9169C85.9428 25.7911 86.3446 25.3352 86.3604 24.5804C86.3762 23.5584 86.3368 22.5364 86.2501 21.5222C86.187 20.8068 85.7222 20.4137 84.9972 20.4216C84.2487 20.4294 83.508 20.5316 82.7595 20.571C82.4285 20.5867 82.334 20.7203 82.3497 21.0348C82.4207 22.104 82.4679 23.181 82.5389 24.2502C82.5783 24.8477 82.6255 25.4452 82.6728 26.1449ZM76.842 24.5333C76.8105 24.5411 76.779 24.549 76.7396 24.5647C76.6371 24.4153 76.5347 24.266 76.4323 24.1166C75.8492 23.2754 75.2661 22.442 74.6909 21.593C74.5175 21.3335 74.2575 21.3178 74.0369 21.4122C73.9345 21.4515 73.8636 21.7109 73.8714 21.8603C73.9345 23.2597 74.029 24.6591 74.0921 26.0584C74.1078 26.4358 74.3442 26.3729 74.5806 26.3808C74.8564 26.3886 74.9588 26.2786 74.9352 26.0113C74.8879 25.4216 74.8406 24.8399 74.817 24.2502C74.8012 23.8493 74.817 23.4405 74.817 23.0395C75.3291 23.6763 75.7546 24.3367 76.1959 24.9892C76.448 25.3666 76.7002 25.7597 76.9996 26.0977C77.1178 26.2314 77.3778 26.2471 77.5827 26.2707C77.6142 26.2707 77.7087 26.0034 77.7087 25.8619C77.693 25.0914 77.6536 24.321 77.6142 23.5427C77.5748 22.8351 77.5196 22.1354 77.4802 21.4279C77.4645 21.1134 77.2517 21.137 77.0311 21.137C76.7947 21.137 76.6608 21.2235 76.6765 21.4829C76.7002 21.8131 76.708 22.1354 76.7238 22.4656C76.7632 23.1575 76.8026 23.8414 76.842 24.5333ZM38.8787 23.0788C38.8945 21.9939 38.6738 21.5458 38.0356 21.3178C37.3895 21.0898 36.7119 20.9876 36.0263 21.1134C35.3723 21.2313 34.9784 21.593 34.9075 22.2455C34.8129 23.1024 34.7577 23.9672 34.742 24.8241C34.7341 25.4138 34.9941 25.9012 35.6008 26.0977C36.3021 26.3257 37.0113 26.365 37.7283 26.1528C38.3193 25.9798 38.6581 25.5789 38.7211 24.9735C38.792 24.2817 38.8393 23.5741 38.8787 23.0788ZM57.6003 19.5647C58.3331 19.5647 59.0738 19.5725 59.8066 19.5647C60.8073 19.5568 60.6891 19.6983 60.7127 18.6606C60.7206 18.3382 60.6024 18.1967 60.2951 18.1102C58.6956 17.6621 57.0882 17.5992 55.4729 18.0002C54.3619 18.2753 54.6061 18.1417 54.5667 19.1401C54.551 19.4703 54.6928 19.5725 55.008 19.5647C55.8668 19.5568 56.7336 19.5647 57.6003 19.5647ZM46.9788 26.3729C46.9394 26.255 46.8921 26.1371 46.8527 26.0191C46.6557 25.5081 46.4666 24.9892 46.2618 24.4782C46.1672 24.2424 46.1751 24.1009 46.4509 23.9987C46.8291 23.865 47.0182 23.5584 47.0734 23.1653C47.16 22.4814 46.9315 22.0411 46.2539 21.9074C45.529 21.7581 44.7725 21.7581 44.0398 21.648C43.6931 21.593 43.5906 21.7345 43.5749 22.0332C43.5118 23.3619 43.4488 24.6984 43.3779 26.027C43.3621 26.3415 43.5276 26.4122 43.7876 26.3965C44.0398 26.3886 44.3313 26.4594 44.3313 26.0427C44.3392 25.5474 44.3707 25.0521 44.4101 24.5568C44.418 24.4389 44.4731 24.2817 44.5519 24.2345C44.8356 24.0694 45.2611 24.2581 45.3793 24.5726C45.5526 25.0364 45.726 25.5081 45.9072 25.9641C46.1357 26.5144 46.3248 26.593 46.9788 26.3729ZM28.8875 23.2518C29.7779 23.2439 30.3295 22.9295 30.5265 22.2927C30.818 21.3493 30.3768 20.5788 29.3603 20.3744C28.659 20.2329 27.9341 20.17 27.225 20.0678C26.9649 20.0285 26.9413 20.1857 26.9334 20.3666C26.9098 20.9169 26.8783 21.4593 26.8468 22.0097C26.7837 23.1339 26.7207 24.2502 26.6498 25.3745C26.634 25.5789 26.5552 25.7911 26.9019 25.8304C27.4771 25.8855 27.6111 25.854 27.6426 25.4845C27.6977 24.832 27.7529 24.1795 27.7765 23.527C27.7923 23.2282 27.9105 23.126 28.1863 23.1653C28.4148 23.2046 28.6512 23.2282 28.8875 23.2518ZM65.6925 26.4594C66.4096 26.5695 66.5593 26.5066 66.6854 26.0742C66.906 25.288 66.7484 25.3902 67.623 25.3666C67.6782 25.3666 67.7254 25.3666 67.7806 25.3666C68.3952 25.3666 68.3952 25.3666 68.5922 25.9484C68.7892 26.5144 69.0413 26.6245 69.6244 26.365C69.1044 24.9106 68.5764 23.4641 68.0564 22.0097C67.9303 21.6559 67.6309 21.7895 67.3866 21.7659C67.1502 21.7502 66.9927 21.821 66.9217 22.0804C66.7169 22.843 66.5041 23.5899 66.2914 24.3524C66.0944 25.0521 65.8895 25.7518 65.6925 26.4594ZM66.6854 19.2502C67.1424 19.2502 67.5994 19.258 68.0564 19.2502C69.0807 19.2345 68.931 19.3838 68.9625 18.3539C68.9704 18.0316 68.868 17.9137 68.537 17.9216C67.4497 17.9373 66.3623 17.9216 65.2749 17.9294C64.29 17.9373 64.4003 17.78 64.3846 18.8414C64.3767 19.1401 64.487 19.2659 64.7943 19.258C65.4325 19.2345 66.055 19.2502 66.6854 19.2502ZM52.4235 24.6197C52.4235 25.2015 52.4471 25.6732 52.4156 26.1449C52.392 26.4751 52.5259 26.5616 52.8096 26.5459C53.0696 26.5301 53.369 26.6402 53.3769 26.1764C53.3769 25.1858 53.4321 24.1873 53.4478 23.1968C53.4636 22.2848 53.3769 22.387 54.2831 22.3792C54.3382 22.3792 54.4013 22.3949 54.4407 22.3713C54.5352 22.3163 54.6219 22.2376 54.7086 22.1669C54.6219 22.1119 54.5352 22.0097 54.4407 22.0097C54.0467 21.9861 53.6527 22.0018 53.2587 21.9939C52.7072 21.9782 52.1635 21.9468 51.6119 21.9389C51.4465 21.9389 51.1864 21.8603 51.2101 22.1512C51.218 22.2298 51.4386 22.3241 51.5804 22.3556C51.7144 22.3949 51.8641 22.3634 52.0138 22.3634C52.4944 22.3792 52.5338 22.4185 52.5102 22.8823C52.4708 23.5034 52.4472 24.1166 52.4235 24.6197ZM59.8223 24.1795C59.8145 24.1795 59.7987 24.1795 59.7908 24.1795C59.7908 23.5663 59.8066 22.9531 59.7829 22.332C59.7672 21.8681 59.389 22.0332 59.1289 22.0018C58.8453 21.9703 58.8138 22.1512 58.8138 22.3713C58.8216 23.637 58.8295 24.9106 58.8216 26.1764C58.8216 26.4515 58.9398 26.5459 59.2077 26.538C59.9248 26.5301 60.6497 26.5459 61.3667 26.5223C61.4691 26.5223 61.5716 26.3965 61.6819 26.3336C61.5795 26.2786 61.4849 26.1764 61.3825 26.1685C60.9885 26.1528 60.5945 26.1528 60.2006 26.1685C59.909 26.1764 59.8066 26.0584 59.8145 25.7754C59.8381 25.2487 59.8223 24.7141 59.8223 24.1795ZM49.2481 19.3288C49.5081 19.3288 49.7681 19.3367 50.036 19.3288C51.1628 19.3131 50.9973 19.5096 51.021 18.3225C51.0288 18.0002 50.8949 17.9216 50.6034 17.9294C49.9257 17.9451 49.2481 17.9216 48.5626 17.9373C47.3964 17.9609 47.5855 17.7171 47.5619 18.9986C47.554 19.258 47.6801 19.3445 47.9165 19.3367C48.3577 19.3209 48.8068 19.3288 49.2481 19.3288ZM54.6376 17.5678C56.6311 16.9467 58.6483 16.9703 60.6497 17.5521C60.7521 16.9388 60.7206 16.8917 60.2084 16.8917C58.5065 16.8917 56.7966 16.8917 55.0947 16.8917C54.5352 16.8838 54.4879 16.9467 54.6376 17.5678ZM68.4504 17.2533C67.5206 16.4514 67.1502 16.4593 66.4647 17.2533C67.1187 17.2533 67.7491 17.2533 68.4504 17.2533ZM48.3262 16.4986C49.2087 17.214 49.6893 17.1983 50.233 16.4986C49.6184 16.4986 49.0117 16.4986 48.3262 16.4986ZM65.0464 16.5064C65.7713 17.2297 66.0708 17.2219 66.7326 16.5064C66.1732 16.5064 65.6374 16.5064 65.0464 16.5064ZM47.6801 16.5615C47.6407 16.5772 47.5934 16.5929 47.554 16.6086C47.5855 16.8131 47.5776 17.1747 47.6564 17.1983C47.9716 17.2848 48.3262 17.269 48.665 17.2848C48.665 17.2454 48.6729 17.2061 48.6729 17.1668C48.3419 16.9703 48.011 16.7659 47.6801 16.5615ZM50.9185 16.5772C50.5797 16.7895 50.2567 16.986 49.9336 17.1904C50.1542 17.2848 50.3355 17.2848 50.5167 17.2848C51.0367 17.2769 51.0998 17.1747 50.9185 16.5772ZM65.401 17.214C65.0543 16.9781 64.7706 16.7816 64.4712 16.5772C64.3136 17.2848 64.4712 17.3948 65.401 17.214ZM68.868 17.0568C68.9074 17.0332 68.9389 17.0096 68.9783 16.9939C68.9389 16.8366 68.9389 16.5772 68.8601 16.5458C68.6395 16.475 68.3794 16.4986 68.1431 16.4907C68.1352 16.5222 68.1352 16.5615 68.1273 16.5929C68.3716 16.7502 68.6237 16.9074 68.868 17.0568Z" fill="white"/>
<path d="M26.8152 51.2946C27.2328 50.1154 27.6189 49.0305 28.005 47.9456C28.4541 46.672 28.919 45.4062 29.3603 44.1326C29.4706 43.8103 29.6361 43.6767 29.9906 43.6845C30.8337 43.7081 31.6689 43.7003 32.512 43.6845C32.8193 43.6767 32.9218 43.771 32.9297 44.0855C32.9691 45.9723 33.0321 47.8512 33.0872 49.738C33.1266 51.0745 33.1739 52.411 33.237 53.7396C33.2527 54.1012 33.1424 54.2663 32.7721 54.282C32.1969 54.3056 31.6217 54.3371 31.0465 54.3921C30.7234 54.4157 30.6446 54.2821 30.6367 53.9833C30.6131 52.5525 30.5658 51.1295 30.5422 49.6987C30.5264 48.9283 30.5422 48.1578 30.5422 47.3874C30.4949 47.3795 30.4476 47.3716 30.4004 47.3638C30.2191 47.8591 30.0379 48.3544 29.8567 48.8496C29.2342 50.6185 28.6117 52.3795 28.005 54.1563C27.8868 54.5022 27.7135 54.6358 27.351 54.628C26.9964 54.6201 26.6419 54.6594 26.2952 54.7066C25.9406 54.7538 25.783 54.5965 25.6727 54.2742C24.9636 52.2459 24.2386 50.2254 23.5137 48.205C23.4507 48.0242 23.3877 47.8433 23.3168 47.6704C23.2774 47.6783 23.2458 47.6783 23.2064 47.6861C23.1907 48.4487 23.1749 49.2113 23.1513 49.9739C23.104 51.5069 23.0489 53.032 23.0173 54.5651C23.0095 54.8874 22.8913 55.0053 22.5761 55.021C21.9851 55.0525 21.4021 55.1154 20.8111 55.1704C20.5826 55.1861 20.3935 55.194 20.4092 54.8638C20.4644 53.0478 20.5038 51.2239 20.5511 49.4078C20.5984 47.6704 20.6535 45.9251 20.6929 44.1877C20.7008 43.8889 20.7953 43.7631 21.1026 43.771C21.9851 43.7789 22.8597 43.7867 23.7422 43.7631C24.0732 43.7553 24.2229 43.8811 24.3332 44.1877C25.1133 46.4518 25.9012 48.716 26.6892 50.9802C26.7128 51.043 26.7443 51.1138 26.8152 51.2946Z" fill="white"/>
<path d="M71.7047 36.3023C71.7047 34.785 71.7126 33.2599 71.6968 31.7426C71.6889 31.3653 71.8229 31.2552 72.1932 31.2395C73.777 31.1923 75.3607 31.0508 76.9445 31.0587C77.9531 31.0665 78.9932 31.1844 79.9702 31.4203C81.223 31.7269 81.7982 32.5995 81.8061 33.8809C81.814 35.2803 81.814 36.6875 81.8061 38.0869C81.7982 39.4233 81.1285 40.4296 79.8599 40.8384C79.0562 41.0978 78.2052 41.2629 77.3621 41.3101C75.6444 41.3966 73.9267 41.3651 72.209 41.4044C71.815 41.4123 71.681 41.2944 71.6889 40.8934C71.7204 39.3683 71.7047 37.8353 71.7047 36.3023ZM78.3392 36.1136C78.347 35.2882 78.3628 34.4627 78.3392 33.6451C78.3155 32.9454 78.0555 32.631 77.3542 32.5445C76.7318 32.4659 76.1014 32.4973 75.4789 32.4895C75.2031 32.4895 75.1007 32.6467 75.1086 32.9218C75.1244 33.6058 75.1086 34.2819 75.1086 34.9658C75.1086 36.4988 75.1086 38.024 75.1086 39.557C75.1086 39.7928 75.1086 40.0208 75.4395 40.0051C76.0541 39.9658 76.6687 39.9658 77.2754 39.8793C77.9688 39.7771 78.3076 39.3761 78.3313 38.6686C78.3549 37.8196 78.3392 36.9627 78.3392 36.1136Z" fill="white"/>
<path d="M65.921 36.5145C66.7484 38.1261 67.5678 39.7142 68.4188 41.3573C68.214 41.373 68.0958 41.3966 67.9697 41.3966C67.166 41.4044 66.3702 41.3808 65.5664 41.4202C65.1646 41.4359 64.9518 41.3022 64.7864 40.9406C64.2348 39.7378 63.636 38.5585 63.0844 37.3557C62.9189 37.0019 62.7219 36.8447 62.3122 36.8604C61.2642 36.8997 61.4218 36.7425 61.414 37.7645C61.4061 38.8415 61.4061 39.9107 61.414 40.9878C61.4218 41.3101 61.3036 41.428 60.9806 41.4202C60.1296 41.4044 59.2786 41.4044 58.4197 41.4202C58.1046 41.428 58.01 41.2944 58.01 41.0035C58.0179 37.9768 58.0179 34.95 58.01 31.9312C58.01 31.6088 58.1203 31.4988 58.4434 31.4988C60.2951 31.5145 62.1389 31.4909 63.9905 31.5145C64.9124 31.5302 65.8186 31.6717 66.6775 32.0255C67.5994 32.4029 68.0958 33.0947 68.08 34.0931C68.0642 35.0994 67.6151 35.8463 66.6538 36.2472C66.4411 36.3258 66.2047 36.4123 65.921 36.5145ZM61.4218 34.211C61.4218 34.5884 61.4218 34.9736 61.4218 35.351C61.4218 35.5554 61.4849 35.6969 61.7055 35.6733C62.4383 35.6183 63.179 35.6183 63.8881 35.4689C64.6367 35.3117 64.9282 34.7928 64.8731 33.9988C64.8258 33.3541 64.4633 32.9453 63.7305 32.8667C63.0686 32.7881 62.3989 32.8038 61.7291 32.7724C61.4849 32.7645 61.414 32.8903 61.414 33.1104C61.4218 33.472 61.4218 33.8415 61.4218 34.211Z" fill="white"/>
<path d="M57.7974 48.6846C58.6326 50.3041 59.4442 51.8686 60.3031 53.5275C60.0194 53.5275 59.8146 53.5275 59.6176 53.5275C58.8454 53.5275 58.0732 53.5196 57.2931 53.5354C57.0173 53.5432 56.8676 53.441 56.7494 53.1973C56.1585 51.9551 55.5439 50.7287 54.9529 49.4786C54.8032 49.172 54.6299 49.0226 54.2674 49.0305C53.1406 49.0698 53.314 48.889 53.3061 49.9897C53.2982 51.0274 53.2982 52.0573 53.3061 53.0951C53.3061 53.4017 53.2273 53.5432 52.8885 53.5432C52.0533 53.5432 51.2102 53.5668 50.3749 53.6061C50.044 53.6219 49.91 53.5196 49.91 53.1659C49.9179 50.1312 49.9179 47.0886 49.91 44.0539C49.91 43.7001 50.044 43.6058 50.3749 43.6058C51.9508 43.6215 53.5267 43.5665 55.0947 43.6294C56.0482 43.6687 56.9858 43.8574 57.9314 44.0067C58.1993 44.046 58.4514 44.1797 58.7036 44.2976C59.6176 44.73 59.9958 45.4612 59.9406 46.4596C59.8934 47.4031 59.4285 48.032 58.5854 48.3937C58.3411 48.4959 58.0968 48.5745 57.7974 48.6846ZM53.2982 46.3417C53.2982 46.7191 53.3061 47.1043 53.2982 47.4817C53.2903 47.7176 53.3691 47.8669 53.6292 47.8433C54.3304 47.7804 55.0396 47.7647 55.733 47.6311C56.4658 47.4896 56.7652 47.0414 56.7573 46.3103C56.7494 45.6106 56.4421 45.1624 55.7172 45.0445C55.0081 44.9266 54.2832 44.9266 53.5661 44.9109C53.4795 44.9109 53.3219 45.0917 53.314 45.2017C53.2825 45.5791 53.3061 45.9565 53.2982 46.3417Z" fill="white"/>
<path d="M12.246 28.9199C13.3806 28.9592 14.4759 29.1165 15.5238 29.5331C16.7609 30.0206 17.5489 30.8932 17.8168 32.214C17.8798 32.5442 17.8089 32.6778 17.4701 32.6857C16.7609 32.7014 16.0518 32.7407 15.3505 32.78C15.0905 32.7958 14.9723 32.7014 14.9486 32.4341C14.7832 30.8382 13.7116 30.5473 12.443 30.7753C11.6944 30.9089 11.4265 31.7344 11.915 32.4263C12.183 32.8036 12.5612 33.1181 12.9473 33.3775C13.9007 34.0222 14.9014 34.604 15.8548 35.2565C16.3906 35.626 16.9264 36.0269 17.3598 36.5065C18.8096 38.1024 18.3605 40.0128 16.3748 40.8462C15.2717 41.31 14.1134 41.3965 12.9394 41.3022C11.9387 41.2236 10.9616 41.0506 10.1028 40.4688C9.1336 39.8163 8.66083 38.8729 8.55051 37.7329C8.52688 37.5128 8.59779 37.4185 8.81842 37.3949C9.57485 37.3241 10.3313 37.2455 11.0877 37.159C11.3714 37.1276 11.4817 37.2376 11.5132 37.5207C11.5447 37.8194 11.6156 38.1182 11.7181 38.3933C12.1199 39.4389 13.4358 39.9342 14.4444 39.4232C14.9486 39.1716 15.1771 38.5506 14.8541 37.9609C14.6098 37.5207 14.2474 37.0883 13.8376 36.7974C12.7818 36.0505 11.6471 35.4059 10.5755 34.6669C10.0791 34.3288 9.60636 33.9357 9.22027 33.4876C7.83348 31.8602 8.55839 29.6275 10.6228 29.1243C11.1429 29.0064 11.7023 28.9907 12.246 28.9199Z" fill="white"/>
<path d="M67.032 47.7725C67.6309 47.065 68.2218 46.3496 68.8207 45.642C69.3249 45.0367 69.8213 44.4235 70.3335 43.8338C70.4202 43.7316 70.5699 43.6294 70.6881 43.6294C71.6336 43.6216 72.5791 43.6294 73.5247 43.6373C73.5562 43.6373 73.5956 43.6688 73.6823 43.7081C73.5089 43.9439 73.3513 44.1798 73.178 44.3999C72.2797 45.5477 71.3893 46.6955 70.4832 47.8276C70.2941 48.0634 70.2941 48.2206 70.4675 48.4722C71.5942 50.0996 72.6973 51.7427 73.8083 53.3779C73.8871 53.4958 73.958 53.6216 74.0841 53.8103C73.895 53.8181 73.7611 53.8417 73.6271 53.8339C72.7761 53.8103 71.9251 53.7946 71.0742 53.7395C70.8929 53.7238 70.6566 53.5823 70.5541 53.4251C69.648 52.0886 68.7655 50.7442 67.8751 49.3999C67.7963 49.282 67.7097 49.164 67.6151 49.0225C67.2211 49.2898 66.9217 49.5493 66.9375 50.0839C66.9769 51.1137 66.9375 52.1515 66.9532 53.1892C66.9611 53.5115 66.8508 53.6295 66.5199 53.6137C65.6768 53.5902 64.8415 53.5823 63.9984 53.598C63.6439 53.6059 63.5493 53.4565 63.5493 53.1263C63.5572 50.0996 63.5572 47.0728 63.5493 44.0461C63.5493 43.7316 63.6439 43.598 63.9748 43.6059C64.8258 43.6216 65.6768 43.6216 66.5356 43.6059C66.8429 43.598 66.9532 43.7081 66.9453 44.0147C66.9296 45.1153 66.9375 46.2159 66.9375 47.3166C66.9375 47.4581 66.9375 47.5996 66.9375 47.7411C66.9611 47.7489 67.0005 47.7647 67.032 47.7725Z" fill="white"/>
<path d="M44.0712 35.1152C44.0712 33.991 44.0791 32.859 44.0633 31.7348C44.0554 31.3653 44.1894 31.2474 44.544 31.271C45.3319 31.3103 46.1199 31.3417 46.8999 31.3496C47.223 31.3496 47.3333 31.4675 47.3254 31.7898C47.3176 33.7945 47.3176 35.7992 47.3176 37.8039C47.3176 37.9375 47.3097 38.0633 47.3176 38.197C47.3491 38.8416 47.3412 39.5413 48.0346 39.8636C48.8541 40.2488 49.7287 40.2724 50.5245 39.7929C50.9894 39.5098 51.084 38.9988 51.084 38.48C51.084 36.381 51.084 34.2898 51.084 32.1908C51.084 31.3181 51.0682 31.436 51.8168 31.4439C52.5496 31.4518 53.2824 31.4832 54.0152 31.4911C54.2515 31.4911 54.3855 31.5697 54.3855 31.8291C54.3619 34.1326 54.3855 36.436 54.3146 38.7394C54.2752 39.8951 53.5975 40.6969 52.4944 41.0586C51.9034 41.2551 51.2731 41.3966 50.6585 41.4516C49.2165 41.5696 47.7746 41.5932 46.3641 41.1922C44.7961 40.7441 44.087 39.8086 44.0712 38.1812C44.0633 37.1592 44.0712 36.1372 44.0712 35.1152Z" fill="white"/>
<path d="M95.1066 41.2552C94.7914 41.2552 94.5392 41.2552 94.2792 41.2552C93.6252 41.2552 92.9712 41.2552 92.3093 41.2631C92.0572 41.2709 91.9311 41.1687 91.8681 40.925C91.7105 40.3197 91.5135 39.7222 91.3559 39.1089C91.285 38.8416 91.1589 38.7159 90.8674 38.7237C90.0558 38.7473 89.2442 38.7473 88.4326 38.7473C88.1962 38.7473 88.0859 38.8416 88.0229 39.0696C87.8417 39.7143 87.6368 40.3511 87.4556 40.9879C87.3925 41.2081 87.2744 41.3181 87.038 41.3181C86.1712 41.3181 85.3045 41.3181 84.4456 41.3181C84.3826 41.3181 84.3195 41.2945 84.2092 41.2709C84.2565 41.1058 84.2801 40.9643 84.3274 40.8228C85.4699 37.4815 86.6204 34.1324 87.755 30.7911C87.8496 30.5238 87.9677 30.3902 88.275 30.3745C89.1733 30.3194 90.0795 30.2408 90.9777 30.1543C91.3087 30.1229 91.4662 30.2408 91.5766 30.5553C92.7112 33.9752 93.8616 37.3793 95.012 40.7992C95.0356 40.925 95.0593 41.0508 95.1066 41.2552ZM89.7091 33.2047C89.6776 33.2047 89.6461 33.2047 89.6067 33.2126C89.2363 34.5805 88.866 35.9564 88.4878 37.3793C89.2363 37.3793 89.914 37.3872 90.5916 37.3636C90.6547 37.3636 90.7728 37.1592 90.7571 37.0649C90.6783 36.6796 90.568 36.3023 90.4577 35.9249C90.2134 35.0129 89.9613 34.1088 89.7091 33.2047Z" fill="white"/>
<path d="M20.3225 41.1765C20.3619 41.035 20.3934 40.8935 20.4328 40.7599C21.5675 37.3714 22.7179 33.983 23.8446 30.5945C23.9628 30.2407 24.1441 30.1306 24.4986 30.1621C25.3575 30.2486 26.2164 30.3272 27.0831 30.3744C27.4298 30.3901 27.5795 30.5237 27.6898 30.8461C28.4778 33.2046 29.2815 35.5632 30.0773 37.9139C30.4083 38.8966 30.755 39.8636 31.0938 40.8463C31.1411 40.98 31.1726 41.1137 31.2198 41.3102C31.0071 41.3181 30.8416 41.3417 30.684 41.3417C29.9512 41.3417 29.2185 41.3259 28.4778 41.3417C28.1941 41.3495 28.0523 41.2394 27.9814 40.9643C27.8159 40.3432 27.6189 39.73 27.4456 39.1167C27.3825 38.8809 27.2643 38.763 27.0043 38.763C26.1927 38.763 25.3811 38.7551 24.5696 38.7394C24.2938 38.7315 24.1756 38.8494 24.1047 39.101C23.9392 39.7221 23.758 40.3353 23.561 40.9486C23.5216 41.0743 23.3561 41.2552 23.2379 41.263C22.3239 41.2866 21.402 41.2709 20.488 41.263C20.4486 41.2473 20.4013 41.208 20.3225 41.1765ZM26.957 37.3714C26.5709 35.9563 26.2006 34.5726 25.8303 33.1968C25.3811 34.494 25.0187 35.7755 24.6878 37.0648C24.6641 37.1434 24.7981 37.3557 24.869 37.3635C25.5387 37.3793 26.2164 37.3714 26.957 37.3714Z" fill="white"/>
<path d="M36.0579 54.0933C36.3179 53.3385 36.5385 52.686 36.7749 52.0335C37.7283 49.3841 38.6896 46.7426 39.6273 44.0854C39.7533 43.7237 39.9346 43.598 40.3128 43.6058C41.1874 43.6294 42.0699 43.6137 42.9445 43.6137C43.173 43.6137 43.3385 43.6687 43.4252 43.9124C44.5913 47.0649 45.7654 50.2253 46.9394 53.3779C46.9631 53.4407 46.9631 53.5036 46.9867 53.598C46.8921 53.6294 46.8133 53.6687 46.7346 53.6766C45.9072 53.708 45.0877 53.7238 44.2604 53.7631C43.9925 53.7788 43.8507 53.6766 43.7797 53.4172C43.6143 52.8511 43.4409 52.2851 43.2361 51.7348C43.1888 51.6168 43.0154 51.4675 42.8972 51.4675C42.1487 51.4517 41.4001 51.4753 40.6595 51.4989C40.0291 51.5146 40.0212 51.5304 39.8479 52.12C39.6982 52.6074 39.5327 53.0948 39.3909 53.5823C39.3278 53.8102 39.2097 53.9282 38.9575 53.9439C38.0198 53.9832 37.0901 54.0382 36.0579 54.0933ZM42.7475 50.1231C42.3693 48.8653 41.999 47.6153 41.6287 46.3653C41.5893 46.3731 41.5499 46.3731 41.5105 46.381C41.1401 47.6546 40.7698 48.9282 40.4073 50.1939C41.1716 50.1939 41.865 50.1939 42.5506 50.1939C42.5978 50.1939 42.6451 50.1624 42.7475 50.1231Z" fill="white"/>
<path d="M106.949 28.6213C106.524 29.549 106.169 30.3588 105.791 31.1607C104.995 32.8667 104.184 34.5727 103.388 36.2787C103.286 36.4988 103.238 36.7504 103.238 36.9941C103.223 38.2362 103.223 39.4784 103.238 40.7284C103.246 41.0665 103.144 41.2001 102.789 41.1844C102.001 41.1687 101.213 41.1687 100.425 41.1923C100.102 41.2001 99.9841 41.0822 99.9919 40.7599C100.008 39.5177 100.008 38.2756 99.9919 37.0255C99.9919 36.7975 99.9289 36.5538 99.8265 36.3573C98.7312 34.2818 97.6202 32.222 96.5171 30.1544C96.4541 30.0443 96.3989 29.9264 96.3123 29.7456C96.5802 29.7141 96.8087 29.6827 97.0293 29.6591C97.6912 29.5883 98.3609 29.5333 99.0228 29.4547C99.3458 29.4154 99.5271 29.5412 99.6689 29.8242C100.26 31.0506 100.874 32.2692 101.481 33.4878C101.528 33.59 101.591 33.6843 101.694 33.8651C101.907 33.3934 102.088 33.0003 102.261 32.5994C102.734 31.5066 103.199 30.4138 103.687 29.321C103.75 29.1795 103.884 28.9987 104.01 28.9751C104.948 28.8415 105.894 28.7393 106.949 28.6213Z" fill="white"/>
<path d="M76.6765 48.8181C76.6765 47.2615 76.6843 45.7049 76.6686 44.1404C76.6686 43.7867 76.7789 43.6609 77.1414 43.6609C79.4107 43.6766 81.68 43.6845 83.9493 43.6766C84.2802 43.6766 84.4221 43.7631 84.4142 44.1169C84.3827 45.2646 84.5481 45.0917 83.4292 45.0917C82.4601 45.0917 81.4909 45.0681 80.5217 45.0288C80.175 45.0131 80.0568 45.131 80.0725 45.4769C80.0962 46.1687 80.0883 46.8684 80.0725 47.5602C80.0647 47.8747 80.1592 48.0005 80.498 48.0005C81.3648 48.0083 82.2237 48.0555 83.0904 48.0634C83.3741 48.0712 83.4765 48.1656 83.4844 48.4564C83.508 49.4627 83.5238 49.4627 82.5152 49.4313C81.8218 49.4155 81.1284 49.392 80.435 49.3605C80.1829 49.3448 80.0725 49.4313 80.0725 49.6907C80.0804 50.5948 80.0804 51.4989 80.0725 52.4029C80.0725 52.6702 80.1829 52.7724 80.4429 52.7803C81.6248 52.8275 82.7989 52.9061 83.9808 52.9375C84.3512 52.9454 84.4851 53.0712 84.4851 53.4485C84.4772 54.3447 84.493 54.3447 83.6026 54.3054C81.4278 54.1954 79.261 54.0775 77.0862 53.9831C76.7474 53.9674 76.6765 53.8259 76.6765 53.5193C76.6765 51.9627 76.6765 50.3904 76.6765 48.8181Z" fill="white"/>
<path d="M92.6088 50.1309C92.6088 51.5461 92.6088 52.9612 92.6088 54.3763C92.6088 54.9581 92.6088 54.966 92.0099 54.9345C91.2535 54.8874 90.4971 54.8087 89.7407 54.7694C89.3782 54.7459 89.26 54.5965 89.26 54.227C89.2758 51.4281 89.2679 48.6215 89.2679 45.8226C89.2679 45.2644 89.2679 45.2723 88.6927 45.2566C87.9993 45.2409 87.3059 45.2094 86.6125 45.2016C86.321 45.2016 86.187 45.1072 86.1949 44.7927C86.2264 43.5034 86.0216 43.6999 87.2586 43.6999C89.851 43.7078 92.4512 43.7392 95.0435 43.7628C95.5872 43.7707 95.5951 43.7786 95.5951 44.3132C95.603 45.3588 95.603 45.3588 94.5629 45.3509C94.0901 45.3431 93.6174 45.3431 93.1446 45.3352C92.6167 45.3352 92.6088 45.3352 92.6088 45.8541C92.6088 47.2771 92.6088 48.7079 92.6088 50.1309Z" fill="white"/>
<path d="M35.2698 36.829C35.2698 35.4767 35.262 34.1324 35.2777 32.7801C35.2856 32.4263 35.1674 32.3006 34.8049 32.3006C34.0879 32.2927 33.363 32.2377 32.646 32.2219C32.3387 32.2141 32.2047 32.1119 32.1968 31.7817C32.1732 30.7282 32.1653 30.7282 33.2054 30.7832C35.6559 30.9011 38.0986 31.0112 40.5491 31.1213C40.6279 31.1213 40.7067 31.1291 40.7854 31.137C41.0612 31.1842 41.5261 31.1606 41.5734 31.3021C41.6995 31.6244 41.6522 32.0175 41.6207 32.3792C41.6128 32.4578 41.3764 32.5836 41.2503 32.5836C40.5333 32.5757 39.8084 32.5679 39.0914 32.505C38.721 32.4735 38.6501 32.5836 38.6501 32.9216C38.658 35.5396 38.658 38.1576 38.658 40.7756C38.658 41.3417 38.658 41.3417 38.0986 41.3417C37.2949 41.3417 36.499 41.326 35.6953 41.3417C35.3644 41.3496 35.262 41.2238 35.262 40.9093C35.2777 39.5492 35.2777 38.1891 35.2698 36.829Z" fill="white"/>
<path d="M100.142 51.2944C100.063 51.2315 99.984 51.1844 99.9209 51.1215C99.3851 50.5869 98.8493 50.0444 98.3056 49.5177C98.1244 49.3369 98.1244 49.2111 98.3056 49.0382C98.8493 48.5114 99.3851 47.9769 99.913 47.4344C100.079 47.2614 100.205 47.2693 100.37 47.4344C100.906 47.9847 101.457 48.5272 102.009 49.0696C102.167 49.2268 102.159 49.3448 102.009 49.4941C101.45 50.0444 100.898 50.6026 100.339 51.1529C100.291 51.2001 100.22 51.2394 100.142 51.2944Z" fill="white"/>
<path d="M13.948 47.1987C14.6336 47.8905 15.2639 48.5116 15.8785 49.1484C15.9258 49.1955 15.9179 49.3606 15.8706 49.4156C15.2639 50.0603 14.6414 50.6892 14.019 51.3181C13.3256 50.642 12.6873 50.0288 12.0648 49.3999C12.0176 49.3528 12.0254 49.1877 12.0727 49.1326C12.6873 48.4959 13.3019 47.8591 13.948 47.1987Z" fill="white"/>
<path d="M58.412 62.4346C58.6247 62.7333 58.8533 63.0163 59.0187 63.3308C59.0581 63.4016 58.9005 63.6374 58.7745 63.7082C58.5144 63.8497 58.2386 63.8576 58.0889 63.5274C57.9392 63.2286 58.0731 62.7726 58.412 62.4346Z" fill="white"/>
<path d="M58.4118 61.7113C58.3567 61.3575 58.2621 60.9958 58.2543 60.642C58.2464 60.3905 58.4434 60.2489 58.7191 60.2961C58.9634 60.3433 59.0895 60.532 59.0186 60.76C58.9161 61.0902 58.7664 61.4125 58.6325 61.7349C58.5537 61.727 58.4828 61.7191 58.4118 61.7113Z" fill="white"/>
<path d="M42.1171 62.859C42.1171 63.0791 42.1644 63.3149 42.1014 63.5193C42.0383 63.7159 41.8965 63.9596 41.7232 64.0461C41.2189 64.2898 41.0219 64.1404 40.9983 63.5822C40.9667 62.8039 40.9273 62.0178 40.9037 61.2395C40.8958 61.0272 40.7382 60.752 41.1007 60.6656C41.5656 60.5555 41.9359 60.7206 42.0068 61.1058C42.0777 61.5303 42.0856 61.9627 42.1171 62.3873C42.1171 62.5445 42.1093 62.7017 42.1171 62.859C42.1171 62.859 42.1093 62.859 42.1171 62.859Z" fill="white"/>
<path d="M76.4481 63.4329C76.4875 62.7017 76.5111 61.9705 76.5662 61.2472C76.582 61.0664 76.4953 60.7755 76.8263 60.7676C77.1414 60.7597 77.4723 60.7912 77.6299 61.1371C77.6772 61.2393 77.7087 61.3651 77.7008 61.4752C77.6693 62.1907 77.6535 62.9061 77.5748 63.6216C77.5196 64.1562 77.1572 64.3606 76.645 64.2113C76.5584 64.1877 76.4638 64.0697 76.4481 63.9754C76.4165 63.7946 76.4402 63.6137 76.4481 63.4329C76.4481 63.4329 76.4402 63.4329 76.4481 63.4329Z" fill="white"/>
<path d="M38.0356 61.5617C38.0513 61.8919 37.9489 62.1434 37.5864 62.2298C37.1215 62.3399 37.0033 62.2534 36.9797 61.774C36.9718 61.6718 36.956 61.5617 36.9639 61.4596C36.9797 61.2159 36.7275 60.8465 37.2397 60.815C37.7755 60.7757 38.0119 60.9565 38.0356 61.436C38.0434 61.4753 38.0356 61.5146 38.0356 61.5617Z" fill="white"/>
<path d="M80.3799 63.3229C80.5454 62.7018 80.6951 62.1357 80.8369 61.5774C80.8763 61.5774 80.9157 61.5696 80.9551 61.5696C81.026 62.1199 81.1048 62.6703 81.16 63.2207C81.1678 63.2679 81.026 63.3779 80.9551 63.3779C80.7975 63.3858 80.632 63.3543 80.3799 63.3229Z" fill="white"/>
<path d="M26.2007 63.8733C26.2874 63.2129 26.3583 62.6232 26.4371 62.0414C26.4765 62.0335 26.5159 62.0335 26.5553 62.0256C26.6971 62.5603 26.8468 63.0871 26.9808 63.6296C26.9887 63.6767 26.8784 63.8025 26.7996 63.8183C26.6341 63.8576 26.4607 63.8497 26.2007 63.8733Z" fill="white"/>
<path d="M45.726 62.8589C45.4186 62.8589 45.198 62.8589 44.8986 62.8589C45.001 62.2379 45.0956 61.6326 45.1901 61.0352C45.2216 61.0352 45.261 61.0352 45.2926 61.0352C45.4344 61.6169 45.5684 62.2064 45.726 62.8589Z" fill="white"/>
<path d="M57.553 69.1249C57.419 69.2586 57.293 69.4787 57.1432 69.4944C56.8438 69.5259 56.8359 69.2429 56.8359 69.0227C56.8359 68.7869 56.8359 68.4882 57.1432 68.4882C57.4978 68.4803 57.4427 68.8105 57.553 69.1249Z" fill="white"/>
<path d="M59.6095 69.7222C59.7119 69.4156 59.8065 69.1247 59.9247 68.7788C60.1375 69.4628 60.0272 69.8008 59.6095 69.7222Z" fill="white"/>
<path d="M85.3597 23.8571C85.3597 24.1559 85.3675 24.4625 85.3597 24.7613C85.3518 25.1543 85.139 25.3902 84.7687 25.4924C84.7293 25.5003 84.6899 25.516 84.6584 25.5239C83.4449 25.6496 83.6419 25.7518 83.5946 24.7377C83.5474 23.6292 83.4607 22.5206 83.3898 21.4043C83.3661 21.1212 83.4449 20.9876 83.7601 20.9483C85.0208 20.791 85.2494 20.9797 85.2888 22.2455C85.3045 22.7801 85.3518 23.3147 85.3833 23.8493C85.3675 23.8571 85.3597 23.8571 85.3597 23.8571Z" fill="white"/>
<path d="M35.7349 24.7142C35.7901 23.9044 35.8373 23.0947 35.9004 22.2928C35.9398 21.8054 36.2077 21.5695 36.6962 21.5381C37.6259 21.4752 37.9726 21.8447 37.8938 22.7645C37.8387 23.4563 37.8308 24.1481 37.7678 24.8399C37.7047 25.6025 37.3738 25.8855 36.6962 25.8305C35.9082 25.7598 35.7191 25.5318 35.7349 24.7142Z" fill="white"/>
<path d="M45.0956 23.7392C44.4652 23.7471 44.4574 23.7471 44.481 23.1259C44.4889 22.9294 44.5362 22.7328 44.5204 22.5441C44.5046 22.1274 44.6938 22.0095 45.072 22.0959C45.1744 22.1195 45.2768 22.1274 45.3793 22.1353C45.9781 22.2139 46.1594 22.4026 46.1436 22.953C46.1278 23.4719 45.8915 23.7078 45.3241 23.7392C45.2532 23.7392 45.1744 23.7392 45.0956 23.7392Z" fill="white"/>
<path d="M28.6039 22.6387C27.8396 22.6387 27.8396 22.6387 27.8632 21.8839C27.879 21.5694 27.9184 21.2549 27.9341 20.9482C27.942 20.6966 28.0681 20.6337 28.2966 20.6652C28.4384 20.6888 28.5803 20.7045 28.7221 20.7281C29.5967 20.846 29.9355 21.5065 29.5337 22.2927C29.3288 22.6937 28.9506 22.6308 28.6039 22.6387Z" fill="white"/>
<path d="M66.9926 24.8635C67.1501 24.1717 67.3156 23.472 67.4732 22.7801C67.5126 22.7723 67.552 22.7723 67.5914 22.7644C67.8042 23.4405 68.009 24.1166 68.2375 24.8557C67.8042 24.8635 67.4259 24.8635 66.9926 24.8635Z" fill="white"/>
</svg>
