<svg width="38" height="32" viewBox="0 0 38 32" fill="none" xmlns="http://www.w3.org/2000/svg">
<path d="M11.9505 31.6521C26.2909 31.6521 34.1331 19.754 34.1331 9.43635C34.1331 9.09841 34.1262 8.76199 34.111 8.42709C35.6333 7.32496 36.9564 5.9496 38 4.38392C36.6031 5.00577 35.0998 5.42439 33.5228 5.61315C35.1324 4.64651 36.3682 3.11739 36.9512 1.29451C35.4448 2.18885 33.7767 2.83886 32.0005 3.1898C30.5779 1.67214 28.5524 0.7229 26.3097 0.7229C22.0043 0.7229 18.5129 4.21962 18.5129 8.52983C18.5129 9.14254 18.5813 9.73852 18.7151 10.3102C12.2354 9.98365 6.48969 6.87667 2.64435 2.15231C1.97479 3.30619 1.58872 4.64655 1.58872 6.07673C1.58872 8.78563 2.96511 11.1771 5.05814 12.5761C3.77904 12.5365 2.57747 12.1848 1.52725 11.5995C1.52611 11.6323 1.5261 11.6642 1.5261 11.6992C1.5261 15.4806 4.21348 18.6378 7.78084 19.3532C7.12572 19.532 6.43645 19.6279 5.72505 19.6279C5.22345 19.6279 4.73476 19.5785 4.25977 19.4871C5.25232 22.5895 8.13048 24.8471 11.5428 24.9102C8.87441 27.0048 5.51299 28.2524 1.85968 28.2524C1.23116 28.2524 0.610249 28.2166 0 28.1443C3.45043 30.3592 7.54749 31.6516 11.951 31.6516" fill="white"/>
</svg>
